<svg width="100" height="29" viewBox="0 0 100 29" fill="none" xmlns="http://www.w3.org/2000/svg">
<path d="M18.5717 23.5H19.0397L20.1917 18.568L22.0637 9.676L26.4557 10.216L23.8277 19.144L21.6317 27.568L15.7277 28.108L13.7477 19.36L13.5677 18.784L11.1557 27.568L5.43173 28.108L3.34373 19.36L0.859734 10.612L5.57573 9.712L7.05173 17.632L8.34773 23.5H8.81573L11.9117 13.24L11.1557 10.612L15.7997 9.712L17.3117 17.632L18.5717 23.5ZM35.3278 24.328C36.0238 24.328 36.7558 24.148 37.5238 23.788C38.2918 23.428 38.8918 23.068 39.3238 22.708L39.9718 22.168L41.6278 24.184C41.3878 24.592 41.0158 25.06 40.5118 25.588C40.0078 26.116 39.4918 26.572 38.9638 26.956C38.4598 27.316 37.7758 27.652 36.9118 27.964C36.0718 28.252 35.1958 28.396 34.2838 28.396C32.3398 28.396 30.7558 27.664 29.5318 26.2C28.3078 24.712 27.6958 22.804 27.6958 20.476C27.6958 17.548 28.5478 14.98 30.2518 12.772C31.9558 10.564 33.9478 9.46 36.2278 9.46C37.9798 9.46 39.3358 9.952 40.2958 10.936C41.2798 11.92 41.7718 13.3 41.7718 15.076C41.7718 16.132 41.5918 17.332 41.2318 18.676L40.5118 19.432L31.5118 20.26C31.9198 22.972 33.1918 24.328 35.3278 24.328ZM35.3278 13.168C34.2718 13.168 33.3838 13.6 32.6638 14.464C31.9438 15.304 31.5238 16.384 31.4038 17.704L37.5238 16.948C37.5958 16.396 37.6318 15.94 37.6318 15.58C37.6318 13.972 36.8638 13.168 35.3278 13.168ZM54.4542 9.82C56.0622 9.82 57.3702 10.516 58.3782 11.908C59.3862 13.3 59.8902 15.088 59.8902 17.272C59.8902 20.416 59.0622 22.996 57.4062 25.012C55.7742 27.004 53.6502 28 51.0342 28C49.8342 28 47.8182 27.808 44.9862 27.424L45.3462 19.252L44.9142 1.036L49.8462 0.135998L49.3782 9.424V13.312C49.6422 12.928 49.9662 12.52 50.3502 12.088C50.7342 11.656 51.3342 11.176 52.1502 10.648C52.9662 10.096 53.7342 9.82 54.4542 9.82ZM53.0502 14.5C51.9462 14.5 50.7222 14.836 49.3782 15.508V18.64L49.5942 23.932C50.6022 24.052 51.5502 24.112 52.4382 24.112C54.7422 24.112 55.8942 22.516 55.8942 19.324C55.8942 16.108 54.9462 14.5 53.0502 14.5ZM67.811 0.135998L67.343 18.64L67.739 27.1L62.879 28L63.311 19.252L62.879 1.036L67.811 0.135998ZM71.5885 10.612L75.9445 9.676C76.1605 11.524 76.3045 13.276 76.3765 14.932C78.5605 11.548 80.6125 9.856 82.5325 9.856L82.1365 15.472C80.7445 15.472 79.6405 15.604 78.8245 15.868C78.0325 16.108 77.2165 16.6 76.3765 17.344V18.64L76.7725 27.1L71.9485 28L72.3805 19.252C72.2845 16.036 72.0205 13.156 71.5885 10.612ZM95.2565 18.892C95.2565 17.236 95.1125 16.132 94.8245 15.58C94.5365 15.028 93.8645 14.752 92.8085 14.752C91.7525 14.752 90.5525 15.172 89.2085 16.012V18.64L89.6045 27.1L84.7805 28L85.2125 19.252C85.1165 16.036 84.8525 13.156 84.4205 10.612L88.7765 9.676C88.9445 11.068 89.0645 12.424 89.1365 13.744C89.4965 13.264 89.9045 12.796 90.3605 12.34C90.8165 11.86 91.5365 11.332 92.5205 10.756C93.5045 10.156 94.5365 9.856 95.6165 9.856C96.7205 9.856 97.6445 10.288 98.3885 11.152C99.1325 11.992 99.5045 13.144 99.5045 14.608L99.2885 18.64L99.6845 27.28L94.8245 28.18L95.2565 18.892Z" fill="#0B79C8"/>
</svg>
